<svg width="350" height="150" viewBox="0 0 350 150" fill="none" xmlns="http://www.w3.org/2000/svg">
<path d="M88.8406 55.373L44.4029 55.373V54.6686C44.4029 51.8392 45.5133 49.1255 47.4898 47.1248C49.4663 45.124 52.147 44.0001 54.9422 44.0001H88.8406V55.373V55.373Z" fill="#2A19EF"/>
<path d="M0 55.3975H44.4377V56.1019C44.4311 58.9299 43.3154 61.6395 41.336 63.6352C39.3566 65.6309 36.6754 66.7495 33.8817 66.745H0V55.3975Z" fill="#2A19EF"/>
<path d="M88.8406 73.6451H44.4029V72.9407C44.4029 70.1113 45.5133 67.3977 47.4898 65.397C49.4663 63.3962 52.147 62.2722 54.9422 62.2722H88.8406V73.6451V73.6451Z" fill="#2A19EF"/>
<path d="M0 73.6359H44.4377V74.3403C44.4388 75.7435 44.1665 77.1331 43.6363 78.4295C43.1061 79.726 42.3284 80.9038 41.3479 81.8956C40.3673 82.8874 39.2032 83.6736 37.922 84.2093C36.6408 84.745 35.2678 85.0195 33.8817 85.0173H0V73.6359Z" fill="#2A19EF"/>
<path d="M88.8419 95.6101H0V107H88.8419V95.6101Z" fill="#2A19EF"/>
<path d="M130.308 93.8653H136.991V89.7504C137.937 92.5125 141.334 94.4854 145.956 94.4854C149.91 94.4854 153.251 93.0762 155.924 90.2577C158.652 87.383 159.989 83.8881 159.989 79.6605C159.989 75.4329 158.652 71.938 155.924 69.1196C153.251 66.2448 149.91 64.8356 145.956 64.8356C141.334 64.8356 137.937 66.8085 136.991 69.5705V54.5765H130.308V93.8653ZM145.065 88.3412C142.671 88.3412 140.61 87.4957 138.94 85.861C137.325 84.2263 136.49 82.1407 136.49 79.6605C136.49 77.1803 137.325 75.0946 138.94 73.46C140.61 71.8253 142.671 70.9797 145.065 70.9797C147.46 70.9797 149.409 71.8253 150.968 73.46C152.583 75.0946 153.362 77.1803 153.362 79.6605C153.362 82.1407 152.583 84.2263 150.968 85.861C149.409 87.4957 147.46 88.3412 145.065 88.3412Z" fill="#2A19EF"/>
<path d="M187.332 93.8653V87.4957H170.738L181.986 75.5456C185.049 72.3326 186.553 69.0069 186.553 65.6811C186.553 62.4117 185.383 59.6497 182.989 57.3386C180.65 55.0275 177.81 53.8438 174.525 53.8438C171.128 53.8438 168.176 55.0839 165.782 57.5077C163.387 59.9315 162.218 62.8063 162.218 66.2448H168.566C168.566 64.4974 169.123 63.0318 170.292 61.8481C171.462 60.6643 172.854 60.0443 174.469 60.0443C177.587 60.0443 180.205 62.5245 180.205 65.6811C180.205 67.5413 179.425 69.2887 177.81 71.0361L160.603 89.2995V93.8653H187.332Z" fill="#2A19EF"/>
<path d="M198.657 93.8653V77.5185C198.657 73.6854 200.996 70.9234 204.114 70.9234C207.288 70.9234 209.126 73.3472 209.126 77.2366V93.8653H215.752V77.5185C215.752 73.6854 218.036 70.9234 221.154 70.9234C224.272 70.9234 226.054 73.3472 226.054 77.2366V86.7065C226.054 91.667 228.226 94.1472 232.625 94.1472C233.906 94.1472 234.853 94.0344 235.521 93.809V88.1157C235.242 88.1721 234.908 88.2285 234.574 88.2285C233.071 88.2285 232.681 87.4393 232.681 85.241V76.2784C232.681 69.2323 229.173 64.892 223.103 64.892C218.704 64.892 215.697 66.5266 214.082 69.8524C212.69 66.5266 210.017 64.892 206.174 64.892C202.611 64.892 199.826 66.7521 198.657 69.5142V65.4556H192.03V93.8653H198.657Z" fill="#2A19EF"/>
<path d="M238.116 79.886C238.116 84.3391 239.508 87.8903 242.237 90.5396C244.966 93.1889 248.585 94.5417 252.984 94.5417C257.718 94.5417 261.616 92.8507 264.79 89.4686L260.78 85.5228C258.609 87.7212 256.103 88.7922 253.207 88.7922C248.251 88.7922 244.966 85.861 244.743 81.3515H266.572C266.627 80.6187 266.683 79.8296 266.683 78.9841C266.683 74.9255 265.402 71.5434 262.785 68.7814C260.223 66.0193 256.882 64.6665 252.817 64.6665C248.529 64.6665 245.021 66.0193 242.237 68.7814C239.508 71.5434 238.116 75.151 238.116 79.6605V79.886ZM244.91 76.6166C245.077 74.8692 245.912 73.4036 247.416 72.2199C248.919 71.0361 250.757 70.4161 252.817 70.4161C254.766 70.4161 256.381 71.0361 257.773 72.2762C259.165 73.46 259.889 74.9255 259.889 76.6166H244.91Z" fill="#2A19EF"/>
<path d="M272.825 85.0155C272.825 91.4415 275.832 94.6545 281.901 94.6545C283.238 94.6545 284.407 94.5417 285.354 94.3163V88.2849C284.63 88.454 283.85 88.5103 283.015 88.5103C280.565 88.5103 279.507 87.383 279.507 84.2827V71.5998H285.688V65.4556H279.507V54.5765H272.825V65.4556H269.316V71.5998H272.825V85.0155Z" fill="#2A19EF"/>
<path d="M296.379 93.8653V78.9277C296.379 74.2491 299.33 71.318 303.952 71.318C304.954 71.318 305.901 71.4307 306.736 71.5998V65.0611C306.179 64.9483 305.511 64.892 304.732 64.892C300.778 64.892 297.715 66.6957 296.379 69.6833V65.4556H289.752V93.8653H296.379Z" fill="#2A19EF"/>
<path d="M311.45 87.2139C311.45 92.0052 313.622 94.429 317.909 94.429C319.469 94.429 320.582 94.2599 321.251 93.9781V88.2849C320.972 88.3412 320.582 88.3976 320.081 88.3976C318.578 88.3976 318.132 87.6084 318.132 85.4101V65.4556H311.45V87.2139ZM314.791 62.1299C316.963 62.1299 318.745 60.3825 318.745 58.1278C318.745 55.873 316.963 54.1256 314.791 54.1256C312.564 54.1256 310.782 55.873 310.782 58.1278C310.782 60.3825 312.564 62.1299 314.791 62.1299Z" fill="#2A19EF"/>
<path d="M338.752 64.5537C334.464 64.5537 330.844 66.0193 327.893 68.8941C324.941 71.7689 323.494 75.3201 323.494 79.6041C323.494 83.8881 324.941 87.4957 327.893 90.3705C330.844 93.2453 334.464 94.6545 338.752 94.6545C343.262 94.6545 346.993 93.0198 350 89.7504L345.879 85.4101C343.93 87.4957 341.536 88.5103 338.752 88.5103C336.301 88.5103 334.241 87.6648 332.57 85.9737C330.956 84.2827 330.12 82.1407 330.12 79.6041C330.12 77.0675 330.956 74.9255 332.57 73.2345C334.241 71.5434 336.301 70.6979 338.752 70.6979C341.536 70.6979 343.93 71.7125 345.879 73.7982L350 69.4578C346.993 66.1884 343.262 64.5537 338.752 64.5537Z" fill="#2A19EF"/>
</svg>
